<svg width="32" height="32" viewBox="0 0 32 32" fill="none" xmlns="http://www.w3.org/2000/svg">
<path d="M5.33301 9.74759C5.33301 9.54321 5.33301 9.44102 5.37107 9.34914C5.40913 9.25725 5.48139 9.185 5.6259 9.04048L8.16144 6.50495C8.7395 5.92689 9.02853 5.63786 9.39607 5.48561C9.76361 5.33337 10.1724 5.33337 10.9899 5.33337H21.0095C21.827 5.33337 22.2357 5.33337 22.6033 5.48561C22.9708 5.63786 23.2599 5.92689 23.8379 6.50495L26.3734 9.04048C26.518 9.185 26.5902 9.25725 26.6283 9.34914C26.6663 9.44102 26.6663 9.54321 26.6663 9.74759V10.6667H5.33301V9.74759Z" stroke="#00933D" stroke-width="2"/>
<path d="M28 24C28 25.8856 27.9998 26.8283 27.4141 27.4141C26.8283 27.9998 25.8856 28 24 28H8C6.11438 28 5.17172 27.9998 4.58594 27.4141C4.00015 26.8283 4 25.8856 4 24V10.667H28V24ZM20 13.667C19.4477 13.667 19 14.1147 19 14.667C18.9999 15.4625 18.6836 16.2256 18.1211 16.7881C17.5585 17.3506 16.7956 17.667 16 17.667C15.2044 17.667 14.4415 17.3506 13.8789 16.7881C13.3164 16.2256 13.0001 15.4625 13 14.667C13 14.1147 12.5523 13.667 12 13.667C11.4477 13.667 11 14.1147 11 14.667C11.0001 15.993 11.5272 17.2645 12.4648 18.2021C13.4025 19.1397 14.674 19.667 16 19.667C17.326 19.667 18.5975 19.1397 19.5352 18.2021C20.4728 17.2645 20.9999 15.993 21 14.667C21 14.1147 20.5523 13.667 20 13.667Z" fill="#00933D"/>
</svg>
