<svg width="54" height="54" viewBox="0 0 54 54" fill="none" xmlns="http://www.w3.org/2000/svg">
<rect width="54" height="54" rx="27" fill="#00933D"/>
<g clip-path="url(#clip0_2_1483)">
<path d="M21.54 20C21.6 20.89 21.75 21.76 21.99 22.59L20.79 23.79C20.38 22.59 20.12 21.32 20.03 20H21.54ZM31.4 32.02C32.25 32.26 33.12 32.41 34 32.47V33.96C32.68 33.87 31.41 33.61 30.2 33.21L31.4 32.02ZM22.5 18H19C18.45 18 18 18.45 18 19C18 28.39 25.61 36 35 36C35.55 36 36 35.55 36 35V31.51C36 30.96 35.55 30.51 35 30.51C33.76 30.51 32.55 30.31 31.43 29.94C31.33 29.9 31.22 29.89 31.12 29.89C30.86 29.89 30.61 29.99 30.41 30.18L28.21 32.38C25.38 30.93 23.06 28.62 21.62 25.79L23.82 23.59C24.1 23.31 24.18 22.92 24.07 22.57C23.7 21.45 23.5 20.25 23.5 19C23.5 18.45 23.05 18 22.5 18Z" fill="white"/>
</g>
<defs>
<clipPath id="clip0_2_1483">
<rect width="24" height="24" fill="white" transform="translate(15 15)"/>
</clipPath>
</defs>
</svg>
