<svg width="54" height="54" viewBox="0 0 54 54" fill="none" xmlns="http://www.w3.org/2000/svg">
<rect width="54" height="54" rx="27" fill="#00933D"/>
<path d="M20.3337 33.6667C19.8753 33.6667 19.483 33.5035 19.1566 33.1771C18.8302 32.8507 18.667 32.4584 18.667 32V22C18.667 21.5417 18.8302 21.1493 19.1566 20.823C19.483 20.4966 19.8753 20.3334 20.3337 20.3334H33.667C34.1253 20.3334 34.5177 20.4966 34.8441 20.823C35.1705 21.1493 35.3337 21.5417 35.3337 22V32C35.3337 32.4584 35.1705 32.8507 34.8441 33.1771C34.5177 33.5035 34.1253 33.6667 33.667 33.6667H20.3337ZM27.0003 27.8334L20.3337 23.6667V32H33.667V23.6667L27.0003 27.8334ZM27.0003 26.1667L33.667 22H20.3337L27.0003 26.1667ZM20.3337 23.6667V22V32V23.6667Z" fill="#FEF7FF"/>
</svg>
