<svg width="54" height="54" viewBox="0 0 54 54" fill="none" xmlns="http://www.w3.org/2000/svg">
<rect width="54" height="54" rx="27" fill="#00933D"/>
<g clip-path="url(#clip0_2_1490)">
<path d="M34 24H33V19H23V24H22.22C21.67 23.39 20.89 23 20 23C18.34 23 17 24.34 17 26V33C17 34.66 18.34 36 20 36C20.89 36 21.67 35.61 22.22 35H37V27C37 25.34 35.66 24 34 24ZM21 33C21 33.55 20.55 34 20 34C19.45 34 19 33.55 19 33V26C19 25.45 19.45 25 20 25C20.55 25 21 25.45 21 26V33ZM25 21H31V24H25V21ZM35 33H23V26H34C34.55 26 35 26.45 35 27V33Z" fill="white"/>
<path d="M30 29C30.5523 29 31 28.5523 31 28C31 27.4477 30.5523 27 30 27C29.4477 27 29 27.4477 29 28C29 28.5523 29.4477 29 30 29Z" fill="white"/>
<path d="M33 29C33.5523 29 34 28.5523 34 28C34 27.4477 33.5523 27 33 27C32.4477 27 32 27.4477 32 28C32 28.5523 32.4477 29 33 29Z" fill="white"/>
<path d="M30 32C30.5523 32 31 31.5523 31 31C31 30.4477 30.5523 30 30 30C29.4477 30 29 30.4477 29 31C29 31.5523 29.4477 32 30 32Z" fill="white"/>
<path d="M33 32C33.5523 32 34 31.5523 34 31C34 30.4477 33.5523 30 33 30C32.4477 30 32 30.4477 32 31C32 31.5523 32.4477 32 33 32Z" fill="white"/>
<path d="M28 27H24V32H28V27Z" fill="white"/>
</g>
<defs>
<clipPath id="clip0_2_1490">
<rect width="24" height="24" fill="white" transform="translate(15 15)"/>
</clipPath>
</defs>
</svg>
