<svg width="32" height="33" viewBox="0 0 32 33" fill="none" xmlns="http://www.w3.org/2000/svg">
<path d="M18 21.5C18.1838 21.5002 18.3338 21.6492 18.334 21.833V28.5H13.667V21.833C13.6672 21.6492 13.8162 21.5002 14 21.5H18ZM16 7.10156C17.4797 7.10156 18.7217 8.16646 21.2061 10.2959L22.54 11.4385C23.9145 12.6166 24.6018 13.2063 24.9678 14.002C25.3335 14.7975 25.333 15.7027 25.333 17.5127V23.167C25.333 25.6806 25.3335 26.9377 24.5527 27.7188C23.8071 28.4644 22.6271 28.4975 20.334 28.499V21.833C20.3338 20.5446 19.2884 19.5002 18 19.5H14C12.7116 19.5002 11.6672 20.5446 11.667 21.833V28.499C9.37327 28.4975 8.19304 28.4645 7.44727 27.7188C6.66654 26.9377 6.66699 25.6806 6.66699 23.167V17.5127C6.66699 15.7027 6.6665 14.7975 7.03223 14.002C7.39816 13.2063 8.08552 12.6166 9.45996 11.4385L10.7939 10.2959C13.2783 8.16646 14.5203 7.10156 16 7.10156Z" fill="#00933D"/>
</svg>
