<svg width="32" height="33" viewBox="0 0 32 33" fill="none" xmlns="http://www.w3.org/2000/svg">
<path d="M6.66602 17.5129C6.66602 15.7025 6.66602 14.7973 7.03196 14.0017C7.39791 13.206 8.08517 12.617 9.45968 11.4388L10.793 10.2959C13.2774 8.16644 14.5197 7.10168 15.9993 7.10168C17.479 7.10168 18.7213 8.16644 21.2057 10.2959L22.539 11.4388C23.9135 12.617 24.6008 13.206 24.9667 14.0017C25.3327 14.7973 25.3327 15.7025 25.3327 17.5129V23.1667C25.3327 25.6809 25.3327 26.9379 24.5516 27.719C23.7706 28.5 22.5135 28.5 19.9993 28.5H11.9993C9.48519 28.5 8.22811 28.5 7.44706 27.719C6.66602 26.9379 6.66602 25.6809 6.66602 23.1667V17.5129Z" stroke="#818181" stroke-width="2"/>
<path d="M19.3327 28.5V21.5C19.3327 20.9477 18.885 20.5 18.3327 20.5H13.666C13.1137 20.5 12.666 20.9477 12.666 21.5V28.5" stroke="#818181" stroke-width="2" stroke-linecap="round" stroke-linejoin="round"/>
</svg>
