<svg width="54" height="54" viewBox="0 0 54 54" fill="none" xmlns="http://www.w3.org/2000/svg">
<rect width="54" height="54" rx="27" fill="#00933D"/>
<path d="M27.0003 35.3334C26.8059 35.3334 26.6392 35.2778 26.5003 35.1667C26.3614 35.0556 26.2573 34.9097 26.1878 34.7292C25.9239 33.9514 25.5906 33.2222 25.1878 32.5417C24.7989 31.8611 24.2503 31.0625 23.542 30.1459C22.8337 29.2292 22.2573 28.3542 21.8128 27.5209C21.3823 26.6875 21.167 25.6806 21.167 24.5C21.167 22.875 21.7295 21.5 22.8545 20.375C23.9934 19.2361 25.3753 18.6667 27.0003 18.6667C28.6253 18.6667 30.0003 19.2361 31.1253 20.375C32.2642 21.5 32.8337 22.875 32.8337 24.5C32.8337 25.7639 32.5906 26.8195 32.1045 27.6667C31.6323 28.5 31.0837 29.3264 30.4587 30.1459C29.7087 31.1459 29.1392 31.9792 28.7503 32.6459C28.3753 33.2986 28.0628 33.9931 27.8128 34.7292C27.7434 34.9236 27.6323 35.0764 27.4795 35.1875C27.3406 35.2847 27.1809 35.3334 27.0003 35.3334ZM27.0003 32.3542C27.2364 31.882 27.5003 31.4167 27.792 30.9584C28.0975 30.5 28.542 29.8889 29.1253 29.125C29.7225 28.3472 30.2087 27.632 30.5837 26.9792C30.9725 26.3125 31.167 25.4861 31.167 24.5C31.167 23.3472 30.7573 22.3681 29.9378 21.5625C29.1323 20.7431 28.1531 20.3334 27.0003 20.3334C25.8475 20.3334 24.8614 20.7431 24.042 21.5625C23.2364 22.3681 22.8337 23.3472 22.8337 24.5C22.8337 25.4861 23.0212 26.3125 23.3962 26.9792C23.785 27.632 24.2781 28.3472 24.8753 29.125C25.4587 29.8889 25.8962 30.5 26.1878 30.9584C26.4934 31.4167 26.7642 31.882 27.0003 32.3542ZM27.0003 26.5834C27.5837 26.5834 28.0767 26.382 28.4795 25.9792C28.8823 25.5764 29.0837 25.0834 29.0837 24.5C29.0837 23.9167 28.8823 23.4236 28.4795 23.0209C28.0767 22.6181 27.5837 22.4167 27.0003 22.4167C26.417 22.4167 25.9239 22.6181 25.5212 23.0209C25.1184 23.4236 24.917 23.9167 24.917 24.5C24.917 25.0834 25.1184 25.5764 25.5212 25.9792C25.9239 26.382 26.417 26.5834 27.0003 26.5834Z" fill="#FEF7FF"/>
</svg>
