<svg width="54" height="54" viewBox="0 0 54 54" fill="none" xmlns="http://www.w3.org/2000/svg">
<rect x="0.5" y="0.5" width="53" height="53" rx="26.5" stroke="#E7E7E8"/>
<path d="M36.7104 35.29L33.0004 31.61C34.4405 29.8144 35.1379 27.5353 34.9492 25.2413C34.7605 22.9473 33.7001 20.8128 31.9859 19.2767C30.2718 17.7405 28.0342 16.9195 25.7333 16.9825C23.4324 17.0455 21.2431 17.9876 19.6155 19.6152C17.988 21.2427 17.0458 23.4321 16.9829 25.7329C16.9199 28.0338 17.7409 30.2714 19.277 31.9855C20.8132 33.6997 22.9477 34.7601 25.2417 34.9488C27.5357 35.1375 29.8148 34.4401 31.6104 33L35.2904 36.68C35.3834 36.7738 35.494 36.8482 35.6158 36.8989C35.7377 36.9497 35.8684 36.9758 36.0004 36.9758C36.1324 36.9758 36.2631 36.9497 36.385 36.8989C36.5068 36.8482 36.6174 36.7738 36.7104 36.68C36.8906 36.4936 36.9914 36.2444 36.9914 35.985C36.9914 35.7257 36.8906 35.4765 36.7104 35.29ZM26.0004 33C24.6159 33 23.2625 32.5895 22.1114 31.8203C20.9603 31.0511 20.063 29.9579 19.5332 28.6788C19.0034 27.3997 18.8648 25.9923 19.1349 24.6344C19.405 23.2765 20.0717 22.0292 21.0506 21.0503C22.0296 20.0713 23.2769 19.4046 24.6348 19.1345C25.9926 18.8644 27.4001 19.0031 28.6792 19.5329C29.9583 20.0627 31.0515 20.9599 31.8207 22.111C32.5899 23.2622 33.0004 24.6156 33.0004 26C33.0004 27.8565 32.2629 29.637 30.9501 30.9498C29.6374 32.2625 27.8569 33 26.0004 33Z" fill="#3E3E40"/>
</svg>
