<svg width="46" height="46" viewBox="0 0 46 46" fill="none" xmlns="http://www.w3.org/2000/svg">
<rect width="46" height="46" rx="23" fill="#F5F5F5"/>
<path d="M22.832 18.5C22.832 18.9429 22.8303 19.3762 22.8779 19.7305C22.9295 20.1135 23.0551 20.551 23.418 20.9141C23.781 21.277 24.2185 21.4026 24.6016 21.4541C24.9559 21.5017 25.389 21.5 25.832 21.5H29.666V26.333C29.666 28.69 29.6658 29.8693 28.9336 30.6016C28.2014 31.3336 27.0226 31.333 24.666 31.333H21.332C18.9754 31.333 17.7967 31.3336 17.0645 30.6016C16.3322 29.8693 16.332 28.69 16.332 26.333V19.667C16.332 17.31 16.3322 16.1307 17.0645 15.3984C17.7967 14.6664 18.9754 14.667 21.332 14.667H22.832V18.5ZM20.499 26.167C19.9467 26.167 19.499 26.6147 19.499 27.167C19.4992 27.7191 19.9468 28.167 20.499 28.167H23.832C24.3842 28.167 24.8319 27.7191 24.832 27.167C24.832 26.6147 24.3843 26.167 23.832 26.167H20.499ZM20.499 22.833C19.9468 22.833 19.4992 23.2809 19.499 23.833C19.499 24.3853 19.9467 24.833 20.499 24.833H25.499C26.0513 24.833 26.499 24.3853 26.499 23.833C26.4988 23.2809 26.0512 22.833 25.499 22.833H20.499ZM24.832 14.6797C25.0858 14.693 25.2716 14.7216 25.4463 14.7939C25.7526 14.9208 25.9939 15.1609 26.4756 15.6426L28.6895 17.8574C29.171 18.339 29.4122 18.5795 29.5391 18.8857C29.6114 19.0603 29.64 19.2464 29.6533 19.5H25.832C25.3327 19.5 25.0583 19.4972 24.8682 19.4717C24.8656 19.4713 24.8628 19.4701 24.8604 19.4697C24.8601 19.4679 24.8596 19.4657 24.8594 19.4639C24.8339 19.2737 24.832 18.9992 24.832 18.5V14.6797Z" fill="#00933D"/>
</svg>
