<svg width="32" height="33" viewBox="0 0 32 33" fill="none" xmlns="http://www.w3.org/2000/svg">
<path d="M5.33398 10.1569C5.33398 9.33935 5.33398 8.9306 5.48623 8.56306C5.63847 8.19552 5.9275 7.90649 6.50556 7.32843L8.16241 5.67157C8.74047 5.09351 9.0295 4.80448 9.39704 4.65224C9.76459 4.5 10.1733 4.5 10.9908 4.5H21.0105C21.828 4.5 22.2367 4.5 22.6043 4.65224C22.9718 4.80448 23.2608 5.09351 23.8389 5.67157L25.4957 7.32843C26.0738 7.90649 26.3628 8.19552 26.5151 8.56306C26.6673 8.9306 26.6673 9.33935 26.6673 10.1569V24.5C26.6673 26.3856 26.6673 27.3284 26.0815 27.9142C25.4957 28.5 24.5529 28.5 22.6673 28.5H9.33399C7.44837 28.5 6.50556 28.5 5.91977 27.9142C5.33398 27.3284 5.33398 26.3856 5.33398 24.5V10.1569Z" stroke="#818181" stroke-width="2"/>
<path d="M5.33398 9.83337H26.6673" stroke="#818181" stroke-width="2" stroke-linecap="round"/>
<path d="M12 15.1666C12 16.2275 12.4214 17.2449 13.1716 17.9951C13.9217 18.7452 14.9391 19.1666 16 19.1666C17.0609 19.1666 18.0783 18.7452 18.8284 17.9951C19.5786 17.2449 20 16.2275 20 15.1666" stroke="#818181" stroke-width="2" stroke-linecap="round"/>
</svg>
