<svg width="46" height="46" viewBox="0 0 46 46" fill="none" xmlns="http://www.w3.org/2000/svg">
<rect width="46" height="46" rx="23" fill="#F5F5F5"/>
<path d="M21.8333 26.5L27.7083 20.625L26.5417 19.4583L21.8333 24.1667L19.4583 21.7917L18.2917 22.9583L21.8333 26.5ZM17.1667 30.5C16.7083 30.5 16.316 30.3368 15.9896 30.0104C15.6632 29.684 15.5 29.2917 15.5 28.8333V17.1667C15.5 16.7083 15.6632 16.316 15.9896 15.9896C16.316 15.6632 16.7083 15.5 17.1667 15.5H28.8333C29.2917 15.5 29.684 15.6632 30.0104 15.9896C30.3368 16.316 30.5 16.7083 30.5 17.1667V28.8333C30.5 29.2917 30.3368 29.684 30.0104 30.0104C29.684 30.3368 29.2917 30.5 28.8333 30.5H17.1667Z" fill="#00933D"/>
</svg>
